<svg xmlns="http://www.w3.org/2000/svg" viewBox="0 0 32 32" width="32" height="32">
  <defs>
    <linearGradient id="fg" x1="0%" y1="100%" x2="100%" y2="0%">
      <stop offset="0%" stop-color="#22d3ee"/>
      <stop offset="50%" stop-color="#6366f1"/>
      <stop offset="100%" stop-color="#a855f7"/>
    </linearGradient>
  </defs>
  <rect width="32" height="32" rx="6" fill="#0a0e1a"/>
  <g transform="translate(16,17)">
    <path d="M-5,2 C-8,-4 -5,-9 -1,-6 C-3,-3 -4,0 -5,2Z" fill="url(#fg)" opacity="0.9"/>
    <path d="M-3,5 C-7,0 -5,-5 -2,-3 C-3,0 -3,3 -3,5Z" fill="url(#fg)" opacity="0.75"/>
    <path d="M5,2 C8,-4 5,-9 1,-6 C3,-3 4,0 5,2Z" fill="url(#fg)" opacity="0.9"/>
    <path d="M3,5 C7,0 5,-5 2,-3 C3,0 3,3 3,5Z" fill="url(#fg)" opacity="0.75"/>
    <path d="M0,6 C2,7 5,6 7,4 C5,5 3,6 1,5Z" fill="url(#fg)" opacity="0.85"/>
    <rect x="0" y="-8" width="2" height="2" rx="0.5" fill="#67e8f9" opacity="0.9"/>
    <rect x="3" y="-8" width="2" height="2" rx="0.5" fill="#818cf8" opacity="0.8"/>
    <rect x="0" y="-5" width="2" height="2" rx="0.5" fill="#67e8f9" opacity="0.7"/>
    <rect x="3" y="-5" width="2" height="2" rx="0.5" fill="#a78bfa" opacity="0.7"/>
  </g>
</svg>
