<svg viewBox="0 0 24 24" role="img" xmlns="http://www.w3.org/2000/svg">
  <defs>
    <linearGradient id="meta-grad" x1="0%" y1="0%" x2="100%" y2="100%">
      <stop offset="0%" stop-color="#0064e0" />
      <stop offset="50%" stop-color="#0080ff" />
      <stop offset="100%" stop-color="#00b2ff" />
    </linearGradient>
  </defs>
  <path fill="url(#meta-grad)" d="M18.6 15c1.48 0 2.4-1.08 2.4-2.58C21 10.7 19.75 9 18.1 9c-2.55 0-4.98 4.05-6.2 5.7C10.58 12.9 8.72 9 5.95 9 4.25 9 3 10.62 3 12.5c0 1.78 1.1 3 2.62 3 2.05 0 3.28-2.05 4.35-3.66M4 15.5c1.2-5 3.25-7.5 5.65-7.5 1.68 0 3.08 1.46 4.48 3.35C15.42 13.1 16.7 15 18.6 15"/>
</svg>
