<svg xmlns="http://www.w3.org/2000/svg" viewBox="0 0 64 64" role="img" aria-label="Meta">
  <rect width="64" height="64" rx="16" fill="#0b1220"/>
  <path fill="#ffffff" d="M17.4 39.8c-3.8 0-6.2-2.8-6.2-7.2 0-5.9 3.8-10.5 8.5-10.5 3.8 0 6.8 2.3 10.5 8.1l1.8 2.8 1.8-2.8c3.7-5.8 6.7-8.1 10.5-8.1 4.7 0 8.5 4.6 8.5 10.5 0 4.4-2.4 7.2-6.2 7.2-3.1 0-5.4-1.7-8.7-6.7l-1.9-2.9-1.9 3c-3.5 5.4-5.9 6.6-8.2 6.6-2.4 0-4.7-1.2-8.2-6.6l-1.9-3-1.9 2.9c-3.3 5-5.6 6.7-8.7 6.7Zm2.3-13.2c-2.3 0-4.1 2.8-4.1 6 0 1.8.6 2.8 1.8 2.8 1.1 0 2.3-.9 4.7-4.6l1.4-2.1c-1.4-1.5-2.6-2.1-3.8-2.1Zm24.6 0c-1.2 0-2.4.6-3.8 2.1l1.4 2.1c2.4 3.7 3.6 4.6 4.7 4.6 1.2 0 1.8-1 1.8-2.8 0-3.2-1.8-6-4.1-6Z"/>
</svg>
