<svg viewBox="0 0 24 24" fill="none" xmlns="http://www.w3.org/2000/svg">
  <path d="M21.3,10.61c0.16-0.78,0.06-1.59-0.29-2.31c-0.45-0.93-1.28-1.61-2.28-1.89C18.66,4.68,17.47,3.58,16,3.31c-0.89-0.16-1.8,0.01-2.58,0.48c-0.62-0.85-1.57-1.39-2.61-1.49c-1-0.1-2.01,0.22-2.78,0.88C7.14,2.5,5.92,2.37,4.83,2.83C3.91,3.22,3.16,3.95,2.77,4.87c-1,0.39-1.8,1.15-2.21,2.1C0.21,7.69,0.1,8.5,0.26,9.28c-0.5,0.61-0.74,1.39-0.68,2.18c0.07,1,0.56,1.91,1.35,2.51c-0.08,0.78,0.02,1.57,0.29,2.3c0.4,1,1.17,1.79,2.14,2.17c0.07,1.01,0.58,1.93,1.4,2.5c0.8,0.56,1.78,0.77,2.72,0.58c0.51,0.68,1.26,1.15,2.1,1.3c0.89,0.16,1.8-0.01,2.58-0.48c0.62,0.85,1.57,1.39,2.61,1.49c0.75,0.07,1.51-0.1,2.17-0.49c0.69,0.69,1.63,1.08,2.61,1.08c1.08,0,2.11-0.46,2.83-1.27c0.88-0.27,1.65-0.84,2.16-1.6c0.55-0.81,0.73-1.79,0.51-2.73c0.72-0.52,1.21-1.32,1.36-2.23C22,12.01,21.75,11.22,21.3,10.61z M12.52,21.84c-1.36,0-2.62-0.78-3.21-2.02l0.14-0.08l4.78-2.76c0.39-0.23,0.63-0.65,0.63-1.1v-6.74l2.02,1.17c0.05,0.03,0.09,0.07,0.11,0.13v5.58C17.01,19.26,14.99,21.84,12.52,21.84z M2.87,17.72c-0.68-1.18-0.89-2.58-0.58-3.92l0.14,0.08l4.78,2.76c0.39,0.22,0.86,0.22,1.25,0l5.84-3.37v2.33c0,0.06-0.02,0.11-0.07,0.14l-4.83,2.79C7.87,19.41,4.42,19.16,2.87,17.72z M2.34,7.87c0.1-1.36,0.77-2.62,1.84-3.46v5.82c0,0.45,0.24,0.87,0.63,1.1l5.81,3.35L8.6,15.86c-0.05,0.03-0.11,0.04-0.16,0.02L3.61,13.1C2.33,12,1.6,10.36,2.34,7.87z M18.94,11.75l-5.81-3.35l2.02-1.17c0.05-0.03,0.11-0.04,0.16-0.02l4.83,2.79c1.28,1.1,2.01,2.74,1.27,5.23c-0.1,1.36-0.77,2.62-1.84,3.46V12.85C19.57,12.4,19.33,11.98,18.94,11.75z M20.95,4.83c0.68,1.18,0.89,2.58,0.58,3.92l-0.14-0.08l-4.78-2.76c-0.39-0.22-0.86-0.22-1.25,0l-5.84,3.37V6.95c0-0.06,0.02-0.11,0.07-0.14l4.83-2.79C15.95,3.14,19.4,3.39,20.95,4.83z M8.31,12.86l-2.02-1.17c-0.05-0.03-0.09-0.07-0.11-0.13V5.98C6.18,2.74,8.21,0.16,10.68,0.16c1.36,0,2.62,0.78,3.21,2.02L13.75,2.26L8.97,5.02C8.58,5.25,8.34,5.67,8.31,12.86z M9.41,10.5l2.6-1.5l2.61,1.5v3l-2.6,1.5l-2.61-1.5V10.5z" fill="#10A37F" />
</svg>